<svg width="15" height="16" viewBox="0 0 15 16" fill="none" xmlns="http://www.w3.org/2000/svg">
<path d="M6.99375 11.875H8.11875V7.125H6.99375V11.875ZM7.5 5.66042C7.675 5.66042 7.82187 5.60104 7.94062 5.48229C8.05937 5.36354 8.11875 5.21181 8.11875 5.02708C8.11875 4.84236 8.05937 4.68403 7.94062 4.55208C7.82187 4.42014 7.675 4.35417 7.5 4.35417C7.325 4.35417 7.17813 4.42014 7.05938 4.55208C6.94063 4.68403 6.88125 4.84236 6.88125 5.02708C6.88125 5.21181 6.94063 5.36354 7.05938 5.48229C7.17813 5.60104 7.325 5.66042 7.5 5.66042V5.66042ZM7.5 15.8333C6.475 15.8333 5.50625 15.6255 4.59375 15.2099C3.68125 14.7943 2.88438 14.2269 2.20312 13.5078C1.52187 12.7887 0.984375 11.9476 0.590625 10.9844C0.196875 10.0212 0 8.99201 0 7.89687C0 6.81493 0.196875 5.79236 0.590625 4.82917C0.984375 3.86597 1.52187 3.02812 2.20312 2.31563C2.88438 1.60313 3.68125 1.03906 4.59375 0.623437C5.50625 0.207812 6.48125 0 7.51875 0C8.54375 0 9.5125 0.207812 10.425 0.623437C11.3375 1.03906 12.1313 1.60313 12.8063 2.31563C13.4813 3.02812 14.0156 3.86597 14.4094 4.82917C14.8031 5.79236 15 6.82153 15 7.91667C15 8.99861 14.8031 10.0212 14.4094 10.9844C14.0156 11.9476 13.4813 12.7887 12.8063 13.5078C12.1313 14.2269 11.3375 14.7943 10.425 15.2099C9.5125 15.6255 8.5375 15.8333 7.5 15.8333ZM7.51875 14.6458C9.28125 14.6458 10.7812 13.9894 12.0187 12.6766C13.2562 11.3637 13.875 9.77049 13.875 7.89687C13.875 6.03646 13.2562 4.45312 12.0187 3.14687C10.7812 1.84062 9.275 1.1875 7.5 1.1875C5.7375 1.1875 4.23438 1.84062 2.99063 3.14687C1.74688 4.45312 1.125 6.04306 1.125 7.91667C1.125 9.77708 1.74688 11.3637 2.99063 12.6766C4.23438 13.9894 5.74375 14.6458 7.51875 14.6458Z" fill="#FFA235"/>
</svg>
