<svg width="15" height="16" viewBox="0 0 15 16" fill="none" xmlns="http://www.w3.org/2000/svg">
<path d="M8.68125 10.6875C8.89375 10.6875 9.075 10.6083 9.225 10.45C9.375 10.2917 9.45 10.1003 9.45 9.87604C9.45 9.65174 9.375 9.46042 9.225 9.30208C9.075 9.14375 8.89375 9.06458 8.68125 9.06458C8.46875 9.06458 8.2875 9.14375 8.1375 9.30208C7.9875 9.46042 7.9125 9.65174 7.9125 9.87604C7.9125 10.1003 7.9875 10.2917 8.1375 10.45C8.2875 10.6083 8.46875 10.6875 8.68125 10.6875ZM8.2125 8.19375H9.09375C9.11875 7.81111 9.17187 7.52743 9.25312 7.34271C9.33437 7.15799 9.5375 6.90069 9.8625 6.57083C10.2 6.22778 10.4344 5.9276 10.5656 5.67031C10.6969 5.41302 10.7625 5.11285 10.7625 4.76979C10.7625 4.16285 10.5656 3.66806 10.1719 3.28542C9.77813 2.90278 9.2625 2.71146 8.625 2.71146C8.15 2.71146 7.725 2.8467 7.35 3.11719C6.975 3.38767 6.7 3.76701 6.525 4.25521L7.36875 4.63125C7.50625 4.30139 7.67812 4.05069 7.88437 3.87917C8.09062 3.70764 8.3375 3.62187 8.625 3.62187C9 3.62187 9.30312 3.73403 9.53437 3.95833C9.76562 4.18264 9.88125 4.46632 9.88125 4.80937C9.88125 5.07326 9.825 5.30417 9.7125 5.50208C9.6 5.7 9.4 5.91111 9.1125 6.13542C8.7125 6.51806 8.4625 6.82483 8.3625 7.05573C8.2625 7.28663 8.2125 7.66597 8.2125 8.19375V8.19375ZM3.375 13.4583C3.075 13.4583 2.8125 13.3396 2.5875 13.1021C2.3625 12.8646 2.25 12.5875 2.25 12.2708V1.1875C2.25 0.870833 2.3625 0.59375 2.5875 0.35625C2.8125 0.11875 3.075 0 3.375 0H13.875C14.175 0 14.4375 0.11875 14.6625 0.35625C14.8875 0.59375 15 0.870833 15 1.1875V12.2708C15 12.5875 14.8875 12.8646 14.6625 13.1021C14.4375 13.3396 14.175 13.4583 13.875 13.4583H3.375ZM3.375 12.2708H13.875V1.1875H3.375V12.2708ZM1.125 15.8333C0.825 15.8333 0.5625 15.7146 0.3375 15.4771C0.1125 15.2396 0 14.9625 0 14.6458V2.375H1.125V14.6458H12.75V15.8333H1.125ZM3.375 1.1875V12.2708V1.1875Z" fill="#FFA235"/>
</svg>
