<svg width="27" height="27" viewBox="0 0 27 27" fill="none" xmlns="http://www.w3.org/2000/svg">
<path d="M26.1029 13.1368C26.1029 5.88149 20.2596 0 13.0514 0C5.84327 0 0 5.88149 0 13.1368C0 19.6941 4.77347 25.13 11.0151 26.1176V16.939H7.70249V13.1442H11.0151V10.248C11.0151 6.95827 12.9629 5.13887 15.9436 5.13887C17.3749 5.13887 18.8652 5.39879 18.8652 5.39879V8.62915H17.2199C15.5968 8.62915 15.0951 9.6391 15.0951 10.6788V13.1442H18.7176L18.1422 16.939H15.1025V26.1176C21.3442 25.13 26.1176 19.6941 26.1176 13.1368H26.1029Z" fill="#40393E"/>
<path d="M18.4009 16.8848L18.9994 13.1346H15.2323V10.698C15.2323 9.67058 15.7617 8.67247 17.4419 8.67247H19.1528V5.48001C19.1528 5.48001 17.603 5.22314 16.1147 5.22314C13.0151 5.22314 10.9897 7.0212 10.9897 10.2724V13.1346H7.54492V16.8848H10.9897V25.9558C11.6802 26.0585 12.386 26.1173 13.1072 26.1173C13.8283 26.1173 14.5342 26.0659 15.2247 25.9558V16.8848H18.3856H18.4009Z" fill="white"/>
</svg>
