<svg width="27" height="27" viewBox="0 0 27 27" fill="none" xmlns="http://www.w3.org/2000/svg">
<path d="M13.6863 26.1176C20.8985 26.1176 26.7451 20.271 26.7451 13.0588C26.7451 5.84664 20.8985 0 13.6863 0C6.47408 0 0.627441 5.84664 0.627441 13.0588C0.627441 20.271 6.47408 26.1176 13.6863 26.1176Z" fill="#40393E"/>
<path d="M17.7575 8.11279C17.2629 8.11279 16.8569 8.51142 16.8569 9.01339C16.8569 9.51537 17.2555 9.91399 17.7575 9.91399C18.2595 9.91399 18.6581 9.51537 18.6581 9.01339C18.6581 8.51142 18.2595 8.11279 17.7575 8.11279Z" fill="white"/>
<path d="M13.7634 9.26416C11.6817 9.26416 9.99121 10.9546 9.99121 13.0363C9.99121 15.118 11.6817 16.8085 13.7634 16.8085C15.8451 16.8085 17.5356 15.118 17.5356 13.0363C17.5356 10.9546 15.8451 9.26416 13.7634 9.26416ZM13.7634 15.4502C12.4346 15.4502 11.3495 14.3651 11.3495 13.0363C11.3495 11.7076 12.4346 10.6224 13.7634 10.6224C15.0921 10.6224 16.1773 11.7076 16.1773 13.0363C16.1773 14.3651 15.0921 15.4502 13.7634 15.4502Z" fill="white"/>
<path d="M16.761 20.6915H10.6488C8.1094 20.6915 6.0498 18.6246 6.0498 16.0926V9.98031C6.0498 7.44091 8.1094 5.38135 10.6488 5.38135H16.761C19.3004 5.38135 21.36 7.44091 21.36 9.98031V16.0926C21.36 18.632 19.293 20.6915 16.761 20.6915ZM10.6488 6.82083C8.90665 6.82083 7.4893 8.23816 7.4893 9.98031V16.0926C7.4893 17.8347 8.90665 19.2521 10.6488 19.2521H16.761C18.5032 19.2521 19.9205 17.8347 19.9205 16.0926V9.98031C19.9205 8.23816 18.5032 6.82083 16.761 6.82083H10.6488Z" fill="white"/>
</svg>
