<svg width="148" height="27" viewBox="0 0 148 27" fill="none" xmlns="http://www.w3.org/2000/svg">
<path d="M26.1029 13.1368C26.1029 5.88149 20.2596 0 13.0514 0C5.84327 0 0 5.88149 0 13.1368C0 19.6941 4.77347 25.13 11.0151 26.1176V16.939H7.70249V13.1442H11.0151V10.248C11.0151 6.95827 12.9629 5.13887 15.9436 5.13887C17.3749 5.13887 18.8652 5.39879 18.8652 5.39879V8.62915H17.2199C15.5968 8.62915 15.0951 9.6391 15.0951 10.6788V13.1442H18.7176L18.1422 16.939H15.1025V26.1176C21.3442 25.13 26.1176 19.6941 26.1176 13.1368H26.1029Z" fill="#40393E"/>
<path d="M18.4009 16.8848L18.9994 13.1346H15.2323V10.698C15.2323 9.67058 15.7617 8.67247 17.4419 8.67247H19.1528V5.48001C19.1528 5.48001 17.603 5.22314 16.1147 5.22314C13.0151 5.22314 10.9897 7.0212 10.9897 10.2724V13.1346H7.54492V16.8848H10.9897V25.9558C11.6802 26.0585 12.386 26.1173 13.1072 26.1173C13.8283 26.1173 14.5342 26.0659 15.2247 25.9558V16.8848H18.3856H18.4009Z" fill="white"/>
<path d="M53.6863 26.1176C60.8985 26.1176 66.7451 20.271 66.7451 13.0588C66.7451 5.84664 60.8985 0 53.6863 0C46.4741 0 40.6274 5.84664 40.6274 13.0588C40.6274 20.271 46.4741 26.1176 53.6863 26.1176Z" fill="#40393E"/>
<path d="M57.7575 8.11279C57.2629 8.11279 56.8569 8.51142 56.8569 9.01339C56.8569 9.51537 57.2555 9.91399 57.7575 9.91399C58.2595 9.91399 58.6581 9.51537 58.6581 9.01339C58.6581 8.51142 58.2595 8.11279 57.7575 8.11279Z" fill="white"/>
<path d="M53.7634 9.26416C51.6817 9.26416 49.9912 10.9546 49.9912 13.0363C49.9912 15.118 51.6817 16.8085 53.7634 16.8085C55.8451 16.8085 57.5356 15.118 57.5356 13.0363C57.5356 10.9546 55.8451 9.26416 53.7634 9.26416ZM53.7634 15.4502C52.4346 15.4502 51.3495 14.3651 51.3495 13.0363C51.3495 11.7076 52.4346 10.6224 53.7634 10.6224C55.0921 10.6224 56.1773 11.7076 56.1773 13.0363C56.1773 14.3651 55.0921 15.4502 53.7634 15.4502Z" fill="white"/>
<path d="M56.761 20.6915H50.6488C48.1094 20.6915 46.0498 18.6246 46.0498 16.0926V9.98031C46.0498 7.44091 48.1094 5.38135 50.6488 5.38135H56.761C59.3004 5.38135 61.36 7.44091 61.36 9.98031V16.0926C61.36 18.632 59.293 20.6915 56.761 20.6915ZM50.6488 6.82083C48.9067 6.82083 47.4893 8.23816 47.4893 9.98031V16.0926C47.4893 17.8347 48.9067 19.2521 50.6488 19.2521H56.761C58.5032 19.2521 59.9205 17.8347 59.9205 16.0926V9.98031C59.9205 8.23816 58.5032 6.82083 56.761 6.82083H50.6488Z" fill="white"/>
<path d="M94.3137 26.1176C101.526 26.1176 107.373 20.271 107.373 13.0588C107.373 5.84664 101.526 0 94.3137 0C87.1015 0 81.2549 5.84664 81.2549 13.0588C81.2549 20.271 87.1015 26.1176 94.3137 26.1176Z" fill="#40393E"/>
<path d="M101.511 8.42825C101.07 8.64327 100.579 8.77382 100.102 8.8583C100.326 8.8199 100.658 8.38217 100.796 8.20554C100.998 7.93676 101.171 7.62959 101.265 7.29937C101.28 7.27633 101.287 7.23793 101.265 7.22257C101.236 7.20721 101.215 7.22257 101.193 7.22257C100.658 7.52975 100.109 7.74477 99.524 7.90604C99.4734 7.9214 99.4373 7.90605 99.4084 7.87533C99.3579 7.81389 99.3145 7.76013 99.2639 7.71406C99.0183 7.49135 98.751 7.31472 98.4548 7.18417C98.0647 7.01522 97.6384 6.94611 97.2122 6.96915C96.8004 6.99987 96.3958 7.12274 96.0346 7.32241C95.6661 7.52207 95.341 7.80621 95.0809 8.1441C94.8136 8.49736 94.6113 8.91205 94.5102 9.34978C94.4091 9.77215 94.4235 10.1945 94.4813 10.6246C94.4885 10.6937 94.4813 10.709 94.4235 10.6937C92.1261 10.3327 90.226 9.45729 88.68 7.58351C88.615 7.49903 88.5789 7.49903 88.5211 7.58351C87.842 8.65863 88.1743 10.3942 89.0196 11.2389C89.1352 11.3541 89.2507 11.4693 89.3736 11.5691C89.3302 11.5768 88.7667 11.5154 88.2682 11.2389C88.2032 11.1928 88.1671 11.2159 88.1599 11.3004C88.1599 11.4155 88.1598 11.5231 88.1815 11.6536C88.3115 12.7441 89.0196 13.7578 89.9949 14.1494C90.1105 14.2032 90.2405 14.2493 90.3633 14.2723C90.1394 14.326 89.9154 14.3644 89.2796 14.3107C89.2002 14.2953 89.1713 14.3337 89.2002 14.4182C89.677 15.8005 90.7101 16.2152 91.4831 16.4533C91.5843 16.4686 91.6926 16.4686 91.7938 16.4993C91.7938 16.507 91.7793 16.507 91.7721 16.5224C91.5193 16.9371 90.6234 17.2442 90.2116 17.3978C89.4602 17.6743 88.6367 17.8048 87.842 17.7204C87.7119 17.6973 87.6902 17.705 87.6541 17.7204C87.618 17.7434 87.6541 17.7741 87.6902 17.8125C87.8492 17.9277 88.0153 18.0275 88.1815 18.1197C88.6872 18.4038 89.2146 18.6342 89.7637 18.7955C92.6101 19.6326 95.8178 19.0182 97.9491 16.7604C99.6252 14.9865 100.218 12.5444 100.218 10.0947C100.218 10.0025 100.326 9.94877 100.384 9.89501C100.817 9.54944 101.171 9.12708 101.496 8.66631C101.569 8.5588 101.569 8.46665 101.569 8.42825V8.41289C101.569 8.37449 101.569 8.38217 101.511 8.41289V8.42825Z" fill="white"/>
<path d="M134.941 26.1176C142.153 26.1176 148 20.271 148 13.0588C148 5.84664 142.153 0 134.941 0C127.729 0 121.882 5.84664 121.882 13.0588C121.882 20.271 127.729 26.1176 134.941 26.1176Z" fill="#40393E"/>
<path d="M142.196 11.7969C142.059 11.8116 141.921 11.8189 141.783 11.8189C140.259 11.8189 138.835 11.0852 137.993 9.85998V16.5365C137.993 19.2657 135.688 21.4741 132.84 21.4741C129.991 21.4741 127.687 19.2657 127.687 16.5365C127.687 13.8072 129.991 11.5988 132.84 11.5988C132.947 11.5988 133.054 11.6061 133.161 11.6135V14.0493C133.054 14.0346 132.954 14.0199 132.84 14.0199C131.385 14.0199 130.213 15.1498 130.213 16.5365C130.213 17.9231 131.392 19.053 132.84 19.053C134.287 19.053 135.573 17.9598 135.573 16.5658L135.596 5.22314H138.023C138.253 7.30679 140.006 8.94289 142.196 9.08962V11.7896" fill="white"/>
</svg>
