<svg width="27" height="27" viewBox="0 0 27 27" fill="none" xmlns="http://www.w3.org/2000/svg">
<path d="M13.9411 26.1176C21.1533 26.1176 27 20.271 27 13.0588C27 5.84664 21.1533 0 13.9411 0C6.72896 0 0.882324 5.84664 0.882324 13.0588C0.882324 20.271 6.72896 26.1176 13.9411 26.1176Z" fill="#40393E"/>
<path d="M21.1963 11.7969C21.0585 11.8116 20.9207 11.8189 20.7829 11.8189C19.2592 11.8189 17.835 11.0852 16.9927 9.85998V16.5365C16.9927 19.2657 14.688 21.4741 11.8396 21.4741C8.99128 21.4741 6.68652 19.2657 6.68652 16.5365C6.68652 13.8072 8.99128 11.5988 11.8396 11.5988C11.9468 11.5988 12.054 11.6061 12.1612 11.6135V14.0493C12.054 14.0346 11.9545 14.0199 11.8396 14.0199C10.3848 14.0199 9.21333 15.1498 9.21333 16.5365C9.21333 17.9231 10.3925 19.053 11.8396 19.053C13.2868 19.053 14.5732 17.9598 14.5732 16.5658L14.5961 5.22314H17.0233C17.253 7.30679 19.0065 8.94289 21.1963 9.08962V11.7896" fill="white"/>
</svg>
