<svg width="27" height="27" viewBox="0 0 27 27" fill="none" xmlns="http://www.w3.org/2000/svg">
<path d="M13.3137 26.1176C20.5259 26.1176 26.3725 20.271 26.3725 13.0588C26.3725 5.84664 20.5259 0 13.3137 0C6.10152 0 0.254883 5.84664 0.254883 13.0588C0.254883 20.271 6.10152 26.1176 13.3137 26.1176Z" fill="#40393E"/>
<path d="M20.5108 8.42825C20.0701 8.64327 19.5788 8.77382 19.102 8.8583C19.3259 8.8199 19.6583 8.38217 19.7955 8.20554C19.9978 7.93676 20.1712 7.62959 20.2651 7.29937C20.2796 7.27633 20.2868 7.23793 20.2651 7.22257C20.2362 7.20721 20.2146 7.22257 20.1929 7.22257C19.6583 7.52975 19.1092 7.74477 18.524 7.90604C18.4734 7.9214 18.4373 7.90605 18.4084 7.87533C18.3579 7.81389 18.3145 7.76013 18.2639 7.71406C18.0183 7.49135 17.751 7.31472 17.4548 7.18417C17.0647 7.01522 16.6384 6.94611 16.2122 6.96915C15.8004 6.99987 15.3958 7.12274 15.0346 7.32241C14.6661 7.52207 14.341 7.80621 14.0809 8.1441C13.8136 8.49736 13.6113 8.91205 13.5102 9.34978C13.4091 9.77215 13.4235 10.1945 13.4813 10.6246C13.4885 10.6937 13.4813 10.709 13.4235 10.6937C11.1261 10.3327 9.22604 9.45729 7.68 7.58351C7.61497 7.49903 7.57887 7.49903 7.52108 7.58351C6.84197 8.65863 7.1743 10.3942 8.01957 11.2389C8.13516 11.3541 8.25075 11.4693 8.37357 11.5691C8.33022 11.5768 7.76668 11.5154 7.26819 11.2389C7.20317 11.1928 7.16707 11.2159 7.15985 11.3004C7.15985 11.4155 7.15983 11.5231 7.1815 11.6536C7.31154 12.7441 8.01955 13.7578 8.99486 14.1494C9.11046 14.2032 9.24051 14.2493 9.36332 14.2723C9.13936 14.326 8.9154 14.3644 8.27964 14.3107C8.20017 14.2953 8.17129 14.3337 8.20018 14.4182C8.677 15.8005 9.71009 16.2152 10.4831 16.4533C10.5843 16.4686 10.6926 16.4686 10.7938 16.4993C10.7938 16.507 10.7793 16.507 10.7721 16.5224C10.5193 16.9371 9.62339 17.2442 9.21159 17.3978C8.46024 17.6743 7.63667 17.8048 6.84197 17.7204C6.71193 17.6973 6.69025 17.705 6.65412 17.7204C6.618 17.7434 6.65412 17.7741 6.69024 17.8125C6.84918 17.9277 7.01534 18.0275 7.1815 18.1197C7.68722 18.4038 8.21461 18.6342 8.76367 18.7955C11.6101 19.6326 14.8178 19.0182 16.9491 16.7604C18.6252 14.9865 19.2176 12.5444 19.2176 10.0947C19.2176 10.0025 19.3259 9.94877 19.3837 9.89501C19.8172 9.54944 20.1712 9.12708 20.4963 8.66631C20.5685 8.5588 20.5686 8.46665 20.5686 8.42825V8.41289C20.5686 8.37449 20.5686 8.38217 20.5108 8.41289V8.42825Z" fill="white"/>
</svg>
