<svg width="13" height="16" viewBox="0 0 13 16" fill="none" xmlns="http://www.w3.org/2000/svg">
<path d="M6.33333 7.71875C6.71597 7.71875 7.04253 7.58351 7.31302 7.31302C7.58351 7.04253 7.71875 6.71597 7.71875 6.33333C7.71875 5.95069 7.58351 5.62413 7.31302 5.35365C7.04253 5.08316 6.71597 4.94792 6.33333 4.94792C5.95069 4.94792 5.62413 5.08316 5.35365 5.35365C5.08316 5.62413 4.94792 5.95069 4.94792 6.33333C4.94792 6.71597 5.08316 7.04253 5.35365 7.31302C5.62413 7.58351 5.95069 7.71875 6.33333 7.71875ZM6.33333 14.2698C8.08819 12.6733 9.38455 11.2252 10.2224 9.92552C11.0602 8.62587 11.4792 7.48125 11.4792 6.49167C11.4792 4.93472 10.9811 3.66146 9.98489 2.67187C8.98871 1.68229 7.77153 1.1875 6.33333 1.1875C4.89514 1.1875 3.67795 1.68229 2.68177 2.67187C1.68559 3.66146 1.1875 4.93472 1.1875 6.49167C1.1875 7.48125 1.61632 8.62587 2.47396 9.92552C3.3316 11.2252 4.61806 12.6733 6.33333 14.2698ZM6.33333 15.8333C4.20903 14.0257 2.6224 12.3467 1.57344 10.7964C0.524479 9.24601 0 7.81111 0 6.49167C0 4.5125 0.636632 2.93576 1.9099 1.76146C3.18316 0.587153 4.65764 0 6.33333 0C8.00903 0 9.48351 0.587153 10.7568 1.76146C12.03 2.93576 12.6667 4.5125 12.6667 6.49167C12.6667 7.81111 12.1422 9.24601 11.0932 10.7964C10.0443 12.3467 8.45764 14.0257 6.33333 15.8333Z" fill="#FFA235"/>
</svg>
