<svg width="16" height="16" viewBox="0 0 16 16" fill="none" xmlns="http://www.w3.org/2000/svg">
<path d="M4.67083 15.8135C4.275 15.8135 3.93854 15.675 3.66146 15.3979C3.38438 15.1208 3.24583 14.7844 3.24583 14.3885C3.24583 13.9927 3.38438 13.6563 3.66146 13.3792C3.93854 13.1021 4.275 12.9635 4.67083 12.9635C5.06667 12.9635 5.40312 13.1021 5.68021 13.3792C5.95729 13.6563 6.09583 13.9927 6.09583 14.3885C6.09583 14.7844 5.95729 15.1208 5.68021 15.3979C5.40312 15.675 5.06667 15.8135 4.67083 15.8135V15.8135ZM12.5875 15.8135C12.1917 15.8135 11.8552 15.675 11.5781 15.3979C11.301 15.1208 11.1625 14.7844 11.1625 14.3885C11.1625 13.9927 11.301 13.6563 11.5781 13.3792C11.8552 13.1021 12.1917 12.9635 12.5875 12.9635C12.9833 12.9635 13.3198 13.1021 13.5969 13.3792C13.874 13.6563 14.0125 13.9927 14.0125 14.3885C14.0125 14.7844 13.874 15.1208 13.5969 15.3979C13.3198 15.675 12.9833 15.8135 12.5875 15.8135ZM3.64167 2.75104L5.81875 7.26354H11.5188L13.9927 2.75104H3.64167ZM3.04792 1.56354H14.7052C15.0087 1.56354 15.2396 1.70208 15.3979 1.97917C15.5563 2.25625 15.5563 2.53333 15.3979 2.81042L12.726 7.61979C12.5809 7.87049 12.3929 8.0717 12.162 8.22344C11.9311 8.37517 11.6771 8.45104 11.4 8.45104H5.40313L4.29479 10.5094H14.0125V11.6969H4.47292C3.91875 11.6969 3.51962 11.5122 3.27552 11.1427C3.03142 10.7733 3.03472 10.3576 3.28542 9.89583L4.55208 7.56042L1.54375 1.1875H0V0H2.31562L3.04792 1.56354ZM5.81875 7.26354H11.5188H5.81875Z" fill="#FFA235"/>
</svg>
