<svg width="15" height="16" viewBox="0 0 15 16" fill="none" xmlns="http://www.w3.org/2000/svg">
<path d="M14.0625 16C12.3681 16 10.684 15.5556 9.01042 14.6667C7.33681 13.7778 5.83333 12.6222 4.5 11.2C3.16667 9.77778 2.08333 8.17407 1.25 6.38889C0.416667 4.6037 0 2.80741 0 1C0 0.718519 0.0902778 0.481482 0.270833 0.288889C0.451389 0.0962963 0.673611 0 0.9375 0H3.85417C4.04861 0 4.21875 0.0703703 4.36458 0.211111C4.51042 0.351852 4.60417 0.540741 4.64583 0.777778L5.20833 3.57778C5.23611 3.78519 5.23264 3.97407 5.19792 4.14444C5.16319 4.31481 5.09028 4.45926 4.97917 4.57778L2.89583 6.82222C3.67361 8.2 4.54514 9.4 5.51042 10.4222C6.47569 11.4444 7.56944 12.3111 8.79167 13.0222L10.7708 10.8444C10.9097 10.6815 11.0694 10.5667 11.25 10.5C11.4306 10.4333 11.6111 10.4222 11.7917 10.4667L14.2708 11.0444C14.4792 11.0889 14.6528 11.2 14.7917 11.3778C14.9306 11.5556 15 11.763 15 12V15C15 15.2815 14.9097 15.5185 14.7292 15.7111C14.5486 15.9037 14.3264 16 14.0625 16ZM2.27083 5.6L3.95833 3.77778L3.47917 1.33333H1.25C1.25 1.91111 1.33333 2.54444 1.5 3.23333C1.66667 3.92222 1.92361 4.71111 2.27083 5.6ZM9.95833 13.6667C10.5278 13.9481 11.1458 14.1778 11.8125 14.3556C12.4792 14.5333 13.125 14.637 13.75 14.6667V12.2889L11.6042 11.8222L9.95833 13.6667Z" fill="#FFA235"/>
</svg>
