<svg width="18" height="13" viewBox="0 0 18 13" fill="none" xmlns="http://www.w3.org/2000/svg">
<path d="M10.2917 4.47292V3.52292C10.7271 3.33819 11.1724 3.19965 11.6276 3.10729C12.0828 3.01493 12.5611 2.96875 13.0625 2.96875C13.4056 2.96875 13.742 2.99514 14.0719 3.04792C14.4017 3.10069 14.725 3.16667 15.0417 3.24583V4.11667C14.725 3.99792 14.405 3.90885 14.0818 3.84948C13.7585 3.7901 13.4187 3.76042 13.0625 3.76042C12.5611 3.76042 12.0795 3.82309 11.6177 3.94844C11.1559 4.07378 10.7139 4.24861 10.2917 4.47292ZM10.2917 8.82708V7.85729C10.7271 7.67257 11.1724 7.53733 11.6276 7.45156C12.0828 7.3658 12.5611 7.32292 13.0625 7.32292C13.4056 7.32292 13.742 7.34931 14.0719 7.40208C14.4017 7.45486 14.725 7.52083 15.0417 7.6V8.47083C14.725 8.35208 14.405 8.26302 14.0818 8.20365C13.7585 8.14427 13.4187 8.11458 13.0625 8.11458C12.5611 8.11458 12.0795 8.17396 11.6177 8.29271C11.1559 8.41146 10.7139 8.58958 10.2917 8.82708ZM10.2917 6.65V5.7C10.7271 5.51528 11.1724 5.37674 11.6276 5.28437C12.0828 5.19201 12.5611 5.14583 13.0625 5.14583C13.4056 5.14583 13.742 5.17222 14.0719 5.225C14.4017 5.27778 14.725 5.34375 15.0417 5.42292V6.29375C14.725 6.175 14.405 6.08594 14.0818 6.02656C13.7585 5.96719 13.4187 5.9375 13.0625 5.9375C12.5611 5.9375 12.0795 6.00017 11.6177 6.12552C11.1559 6.25087 10.7139 6.42569 10.2917 6.65ZM4.11667 9.89583C4.82917 9.89583 5.51858 9.9783 6.1849 10.1432C6.85121 10.3082 7.50764 10.5556 8.15417 10.8854V2.43437C7.56042 2.03854 6.91719 1.73177 6.22448 1.51406C5.53177 1.29635 4.82917 1.1875 4.11667 1.1875C3.61528 1.1875 3.12378 1.25017 2.64219 1.37552C2.16059 1.50087 1.67569 1.6559 1.1875 1.84062V10.4302C1.59653 10.2455 2.06163 10.1102 2.58281 10.0245C3.10399 9.93872 3.61528 9.89583 4.11667 9.89583ZM9.34167 10.8854C10.0014 10.5556 10.6479 10.3082 11.2812 10.1432C11.9146 9.9783 12.5875 9.89583 13.3 9.89583C13.8014 9.89583 14.3193 9.93542 14.8536 10.0146C15.388 10.0937 15.8465 10.1993 16.2292 10.3312V1.84062C15.7806 1.61632 15.3056 1.45139 14.8042 1.34583C14.3028 1.24028 13.8014 1.1875 13.3 1.1875C12.5875 1.1875 11.8981 1.29635 11.2318 1.51406C10.5655 1.73177 9.93542 2.03854 9.34167 2.43437V10.8854ZM8.74792 12.6667C8.075 12.1653 7.34271 11.7793 6.55104 11.5089C5.75937 11.2384 4.94792 11.1031 4.11667 11.1031C3.62847 11.1031 3.15347 11.1625 2.69167 11.2812C2.22986 11.4 1.76806 11.5451 1.30625 11.7167C1.00278 11.8618 0.709201 11.842 0.425521 11.6573C0.14184 11.4726 0 11.2087 0 10.8656V1.70208C0 1.50417 0.0461805 1.32274 0.138542 1.15781C0.230903 0.992882 0.369444 0.864236 0.554167 0.771875C1.10833 0.507986 1.68559 0.313368 2.28594 0.188021C2.88628 0.0626738 3.49653 0 4.11667 0C4.94792 0 5.75608 0.112153 6.54115 0.336458C7.32621 0.560764 8.06181 0.903819 8.74792 1.36562C9.42083 0.903819 10.1432 0.560764 10.9151 0.336458C11.687 0.112153 12.4819 0 13.3 0C13.9201 0 14.5271 0.0626738 15.1208 0.188021C15.7146 0.313368 16.2885 0.507986 16.8427 0.771875C17.0274 0.864236 17.1693 0.992882 17.2682 1.15781C17.3672 1.32274 17.4167 1.50417 17.4167 1.70208V10.8656C17.4167 11.2351 17.2682 11.5155 16.9714 11.7068C16.6745 11.8981 16.3809 11.9014 16.0906 11.7167C15.642 11.5319 15.1868 11.3835 14.725 11.2714C14.2632 11.1592 13.7882 11.1031 13.3 11.1031C12.4687 11.1031 11.6705 11.2417 10.9052 11.5187C10.1399 11.7958 9.42083 12.1785 8.74792 12.6667Z" fill="#FFA235"/>
</svg>
