<svg width="18" height="16" viewBox="0 0 18 16" fill="none" xmlns="http://www.w3.org/2000/svg">
<path d="M8.60937 14.626C8.67535 14.626 8.75122 14.6095 8.83698 14.5766C8.92274 14.5436 8.99201 14.5007 9.04479 14.4479L15.7146 7.75833C15.8861 7.58681 16.0148 7.39219 16.1005 7.17448C16.1863 6.95677 16.2292 6.73576 16.2292 6.51146C16.2292 6.28715 16.1863 6.06285 16.1005 5.83854C16.0148 5.61424 15.8861 5.41632 15.7146 5.24479L12.1521 1.68229C11.9806 1.51076 11.7826 1.38212 11.5583 1.29635C11.334 1.21059 11.1097 1.16771 10.8854 1.16771C10.6611 1.16771 10.4401 1.21059 10.2224 1.29635C10.0047 1.38212 9.81007 1.51076 9.63854 1.68229L9.28229 2.03854L10.8854 3.66146C11.0569 3.84618 11.2087 4.06059 11.3406 4.30469C11.4726 4.54878 11.5385 4.81597 11.5385 5.10625C11.5385 5.60764 11.3439 6.04965 10.9547 6.43229C10.5655 6.81493 10.1201 7.00625 9.61875 7.00625C9.28889 7.00625 9.0151 6.95677 8.7974 6.85781C8.57969 6.75885 8.37847 6.61701 8.19375 6.43229L6.74896 4.9875L3.16667 8.56979C3.10069 8.63576 3.05451 8.70503 3.02812 8.7776C3.00174 8.85017 2.98854 8.92604 2.98854 9.00521C2.98854 9.17674 3.04462 9.31858 3.15677 9.43073C3.26892 9.54288 3.41076 9.59896 3.58229 9.59896C3.66146 9.59896 3.73733 9.57917 3.8099 9.53958C3.88247 9.5 3.94514 9.45382 3.99792 9.40104L6.72917 6.66979L7.56042 7.50104L4.84896 10.2125C4.78299 10.2785 4.73681 10.351 4.71042 10.4302C4.68403 10.5094 4.67083 10.5885 4.67083 10.6677C4.67083 10.826 4.73021 10.9646 4.84896 11.0833C4.96771 11.2021 5.10625 11.2615 5.26458 11.2615C5.34375 11.2615 5.41962 11.245 5.49219 11.212C5.56476 11.179 5.62743 11.1361 5.68021 11.0833L8.41146 8.35208L9.24271 9.18333L6.53125 11.8948C6.47847 11.9476 6.43559 12.0168 6.4026 12.1026C6.36962 12.1884 6.35312 12.2708 6.35312 12.35C6.35312 12.5083 6.4125 12.6469 6.53125 12.7656C6.65 12.8844 6.78854 12.9438 6.94687 12.9438C7.02604 12.9438 7.09861 12.9306 7.16458 12.9042C7.23056 12.8778 7.29653 12.8316 7.3625 12.7656L10.0937 10.0344L10.925 10.8656L8.19375 13.5969C8.12778 13.6628 8.0816 13.7354 8.05521 13.8146C8.02882 13.8938 8.01562 13.9663 8.01562 14.0323C8.01562 14.217 8.0684 14.3622 8.17396 14.4677C8.27951 14.5733 8.42465 14.626 8.60937 14.626ZM8.60937 15.8135C8.17396 15.8135 7.78472 15.6519 7.44167 15.3286C7.09861 15.0054 6.8941 14.6063 6.82812 14.1313C6.37951 14.0653 6.00347 13.8806 5.7 13.5771C5.39653 13.2736 5.21181 12.8976 5.14583 12.449C4.69722 12.383 4.32448 12.195 4.0276 11.8849C3.73073 11.5748 3.54931 11.2021 3.48333 10.7667C2.99514 10.7007 2.59271 10.5028 2.27604 10.1729C1.95937 9.84306 1.80104 9.44722 1.80104 8.98542C1.80104 8.76111 1.84392 8.53681 1.92969 8.3125C2.01545 8.08819 2.1441 7.89028 2.31562 7.71875L6.74896 3.28542L8.92604 5.4625C9.0316 5.56806 9.14705 5.65052 9.2724 5.7099C9.39774 5.76927 9.51979 5.79896 9.63854 5.79896C9.81007 5.79896 9.9717 5.72309 10.1234 5.57135C10.2752 5.41962 10.351 5.25799 10.351 5.08646C10.351 5.00729 10.328 4.91823 10.2818 4.81927C10.2356 4.72031 10.1597 4.61806 10.0542 4.5125L7.22396 1.68229C7.05243 1.51076 6.85451 1.38212 6.63021 1.29635C6.4059 1.21059 6.1816 1.16771 5.95729 1.16771C5.73299 1.16771 5.51198 1.21059 5.29427 1.29635C5.07656 1.38212 4.88194 1.51076 4.71042 1.68229L1.70208 4.69062C1.51736 4.87535 1.38872 5.06997 1.31615 5.27448C1.24358 5.47899 1.20069 5.7066 1.1875 5.95729C1.17431 6.22118 1.22378 6.47517 1.33594 6.71927C1.44809 6.96337 1.58333 7.18438 1.74167 7.38229L0.890625 8.23333C0.626736 7.94306 0.412326 7.5934 0.247396 7.18438C0.0824653 6.77535 0 6.35972 0 5.9375C0 5.54167 0.0758681 5.16233 0.227604 4.79948C0.37934 4.43663 0.59375 4.11667 0.870833 3.83958L3.85937 0.851042C4.14965 0.560764 4.47951 0.346354 4.84896 0.207812C5.2184 0.0692707 5.59444 0 5.97708 0C6.35972 0 6.73246 0.0692707 7.09531 0.207812C7.45816 0.346354 7.78472 0.560764 8.075 0.851042L8.43125 1.20729L8.7875 0.851042C9.07778 0.560764 9.40764 0.346354 9.77708 0.207812C10.1465 0.0692707 10.5226 0 10.9052 0C11.2878 0 11.6606 0.0692707 12.0234 0.207812C12.3863 0.346354 12.7128 0.560764 13.0031 0.851042L16.5458 4.39375C16.8361 4.68403 17.0538 5.01389 17.199 5.38333C17.3441 5.75278 17.4167 6.12882 17.4167 6.51146C17.4167 6.8941 17.3441 7.26684 17.199 7.62969C17.0538 7.99254 16.8361 8.3191 16.5458 8.60938L9.87604 15.2792C9.70451 15.4507 9.5099 15.5826 9.29219 15.675C9.07448 15.7674 8.84687 15.8135 8.60937 15.8135V15.8135Z" fill="#FFA235"/>
</svg>
