<svg width="17" height="15" viewBox="0 0 17 15" fill="none" xmlns="http://www.w3.org/2000/svg">
<path d="M15.876 6.35312V13.0625C15.876 13.3792 15.751 13.6562 15.501 13.8937C15.251 14.1312 14.9594 14.25 14.626 14.25H2.10521C1.77188 14.25 1.48021 14.1312 1.23021 13.8937C0.980208 13.6562 0.855208 13.3792 0.855208 13.0625V6.35312C0.46632 6.03646 0.209375 5.64722 0.084375 5.18542C-0.040625 4.72361 -0.0267361 4.26181 0.126042 3.8L1.02188 1.12813C1.13299 0.771875 1.32743 0.494792 1.60521 0.296875C1.88299 0.0989583 2.20243 0 2.56354 0H14.0844C14.4733 0 14.8135 0.102257 15.1052 0.306771C15.3969 0.511285 15.5983 0.78507 15.7094 1.12813L16.626 3.8C16.7788 4.26181 16.7892 4.72361 16.6573 5.18542C16.5253 5.64722 16.2649 6.03646 15.876 6.35312ZM10.251 5.73958C10.6538 5.73958 10.9941 5.61424 11.2719 5.36354C11.5497 5.11285 11.6608 4.80938 11.6052 4.45313L11.0844 1.1875H9.00104V4.45313C9.00104 4.79618 9.1191 5.09635 9.35521 5.35365C9.59132 5.61094 9.88993 5.73958 10.251 5.73958ZM6.35521 5.73958C6.7441 5.73958 7.07396 5.61424 7.34479 5.36354C7.61563 5.11285 7.75104 4.80938 7.75104 4.45313V1.1875H5.66771L5.14688 4.45313C5.09132 4.79618 5.18854 5.09635 5.43854 5.35365C5.68854 5.61094 5.9941 5.73958 6.35521 5.73958ZM2.56354 5.73958C2.89688 5.73958 3.18507 5.63073 3.42813 5.41302C3.67118 5.19531 3.81354 4.92812 3.85521 4.61146L4.39688 1.1875H2.31354L1.35521 4.07708C1.21632 4.48611 1.27188 4.86545 1.52188 5.2151C1.77188 5.56476 2.1191 5.73958 2.56354 5.73958V5.73958ZM14.1677 5.73958C14.6122 5.73958 14.9628 5.56806 15.2198 5.225C15.4767 4.88194 15.5358 4.49931 15.3969 4.07708L14.4385 1.1875H12.3552L12.8969 4.61146C12.9385 4.92812 13.0809 5.19531 13.324 5.41302C13.567 5.63073 13.8483 5.73958 14.1677 5.73958V5.73958ZM2.10521 13.0625H14.626V6.90729C14.6399 6.92049 14.5948 6.92708 14.4906 6.92708H14.1677C13.8205 6.92708 13.4906 6.85781 13.1781 6.71927C12.8656 6.58073 12.5566 6.36632 12.251 6.07604C12.0288 6.33993 11.751 6.54774 11.4177 6.69948C11.0844 6.85122 10.7163 6.92708 10.3135 6.92708C9.89688 6.92708 9.53924 6.87101 9.24063 6.75885C8.94202 6.6467 8.65382 6.45868 8.37604 6.19479C8.16771 6.43229 7.90382 6.61372 7.58438 6.73906C7.26493 6.86441 6.90382 6.92708 6.50104 6.92708C6.07049 6.92708 5.68854 6.85451 5.35521 6.70938C5.02188 6.56424 4.73715 6.35313 4.50104 6.07604C4.16771 6.35313 3.84132 6.56424 3.52188 6.70938C3.20243 6.85451 2.88299 6.92708 2.56354 6.92708H2.28229C2.19201 6.92708 2.13299 6.92049 2.10521 6.90729V13.0625ZM14.626 13.0625H2.10521H14.626Z" fill="#FFA235"/>
</svg>
